<?xml version="1.0" encoding="UTF-8"?>
<svg id="Layer_1" data-name="Layer 1" xmlns="http://www.w3.org/2000/svg" xmlns:xlink="http://www.w3.org/1999/xlink" viewBox="0 0 1222.2 481.94">
  <defs>
    <style>
      .cls-1 {
        fill: #184176;
      }

      .cls-2 {
        fill: #fff;
      }

      .cls-3 {
        opacity: .67;
      }

      .cls-3, .cls-4, .cls-5, .cls-6, .cls-7, .cls-8, .cls-9, .cls-10, .cls-11, .cls-12, .cls-13 {
        fill: none;
      }

      .cls-3, .cls-4, .cls-5, .cls-6, .cls-7, .cls-9, .cls-10, .cls-11, .cls-12, .cls-13 {
        stroke: #f4811e;
        stroke-miterlimit: 10;
        stroke-width: 1.5px;
      }

      .cls-4 {
        opacity: .89;
      }

      .cls-14 {
        fill: #f4811e;
      }

      .cls-5 {
        opacity: .56;
      }

      .cls-6 {
        opacity: .33;
      }

      .cls-15 {
        clip-path: url(#clippath);
      }

      .cls-9 {
        opacity: .11;
      }

      .cls-10 {
        opacity: 0;
      }

      .cls-11 {
        opacity: .78;
      }

      .cls-12 {
        opacity: .22;
      }

      .cls-13 {
        opacity: .44;
      }
    </style>
    <clipPath id="clippath">
      <path class="cls-8" d="M941.79,366.15c-136.77-34.84-147.19-37.49-291.97-37.7-11.94-.02-21.66-34.49-35.58-34.49-12.35,0-27.22,34.51-38.39,34.59-153.99,1.05-201.22,9.78-295.44,37.6,0-182.63,148.05-330.69,330.69-330.69s330.69,148.05,330.69,330.69Z"/>
    </clipPath>
  </defs>
  <g class="cls-15">
    <g>
      <circle class="cls-7" cx="614.4" cy="380.04" r="81.72"/>
      <circle class="cls-4" cx="614.4" cy="380.04" r="110.93"/>
      <circle class="cls-11" cx="614.4" cy="380.04" r="140.13"/>
      <circle class="cls-3" cx="614.4" cy="380.04" r="169.34"/>
      <circle class="cls-5" cx="614.4" cy="380.04" r="198.54"/>
      <circle class="cls-13" cx="614.4" cy="380.04" r="227.75"/>
      <circle class="cls-6" cx="614.4" cy="380.04" r="256.96"/>
      <circle class="cls-12" cx="614.4" cy="380.04" r="286.16"/>
      <circle class="cls-9" cx="614.4" cy="380.04" r="315.37"/>
      <circle class="cls-10" cx="614.4" cy="380.04" r="344.57"/>
    </g>
  </g>
  <g>
    <path class="cls-14" d="M916.7,198.08c0-.38,.1-.68,.3-.91,.2-.22,.54-.44,1.02-.65l2.8-1.22c1.53-.67,2.66-1.44,3.39-2.31,.73-.87,1.1-1.97,1.1-3.31v-.29c0-1.04-.24-1.97-.73-2.8-.49-.83-1.2-1.49-2.13-1.98-.93-.49-2.09-.74-3.48-.74s-2.57,.25-3.5,.77c-.93,.51-1.64,1.21-2.12,2.09-.48,.88-.72,1.88-.72,3h3.8c0-.8,.21-1.43,.65-1.89s1.06-.69,1.89-.69,1.44,.22,1.88,.67,.66,1.02,.66,1.72-.17,1.25-.53,1.7-.88,.82-1.58,1.12l-2.82,1.22c-.89,.38-1.61,.79-2.16,1.23s-.95,.94-1.2,1.49c-.25,.56-.37,1.21-.37,1.96v3.59h12.48v-3.37h-8.63v-.41Z"/>
    <path class="cls-14" d="M944.51,188.11c-.56-1.29-1.41-2.32-2.55-3.08-1.14-.77-2.59-1.15-4.36-1.15s-3.23,.38-4.38,1.15c-1.15,.76-2,1.79-2.56,3.08-.55,1.29-.83,2.73-.83,4.33v1.38c0,1.14,.14,2.22,.43,3.24,.29,1.03,.74,1.94,1.36,2.73,.62,.79,1.43,1.41,2.41,1.86,.99,.46,2.18,.69,3.57,.69s2.57-.23,3.55-.69c.98-.45,1.77-1.07,2.39-1.86,.61-.79,1.06-1.7,1.36-2.73,.29-1.02,.44-2.1,.44-3.24v-1.38c0-1.6-.28-3.04-.83-4.33Zm-4.04,9.24c-.63,.9-1.58,1.35-2.87,1.35s-2.28-.45-2.91-1.36c-.63-.91-.94-2.32-.94-4.23s.32-3.4,.95-4.28c.64-.88,1.61-1.32,2.9-1.32s2.2,.44,2.84,1.32,.96,2.32,.96,4.33c0,1.89-.31,3.29-.93,4.19Z"/>
    <path class="cls-14" d="M953.87,198.08c0-.38,.1-.68,.3-.91,.2-.22,.54-.44,1.02-.65l2.8-1.22c1.53-.67,2.66-1.44,3.39-2.31,.73-.87,1.1-1.97,1.1-3.31v-.29c0-1.04-.24-1.97-.73-2.8-.49-.83-1.2-1.49-2.13-1.98-.93-.49-2.09-.74-3.48-.74s-2.57,.25-3.5,.77c-.93,.51-1.64,1.21-2.12,2.09-.48,.88-.72,1.88-.72,3h3.8c0-.8,.21-1.43,.65-1.89s1.06-.69,1.89-.69,1.44,.22,1.88,.67,.66,1.02,.66,1.72-.17,1.25-.53,1.7-.88,.82-1.58,1.12l-2.82,1.22c-.89,.38-1.61,.79-2.16,1.23s-.95,.94-1.2,1.49c-.25,.56-.37,1.21-.37,1.96v3.59h12.48v-3.37h-8.63v-.41Z"/>
    <path class="cls-14" d="M980.46,192.96c-.48-.87-1.17-1.55-2.06-2.04-.89-.49-1.95-.73-3.18-.73-1.08,0-2.04,.2-2.87,.6-.74,.36-1.33,.89-1.79,1.57,.06-.88,.2-1.64,.43-2.28,.3-.83,.82-1.46,1.56-1.88,.73-.43,1.73-.64,3.01-.64,.63,0,1.26,.02,1.86,.05,.61,.03,1.17,.08,1.7,.14v-3.3c-.54-.06-1.1-.11-1.67-.14-.58-.03-1.16-.05-1.75-.05-2.9,0-5.09,.74-6.56,2.21-1.48,1.48-2.21,3.67-2.21,6.57v1c0,1.15,.13,2.23,.4,3.24,.27,1.01,.71,1.9,1.3,2.66,.58,.77,1.34,1.37,2.27,1.8,.92,.43,2.03,.64,3.32,.64,1.4,0,2.62-.26,3.67-.79,1.04-.52,1.85-1.26,2.42-2.21,.58-.95,.87-2.05,.87-3.31,0-1.19-.24-2.23-.72-3.11Zm-3.46,4.73c-.26,.43-.63,.78-1.12,1.03-.49,.26-1.08,.39-1.78,.39s-1.32-.13-1.82-.39c-.49-.25-.86-.6-1.11-1.05-.25-.44-.37-.95-.37-1.53,0-.67,.15-1.22,.45-1.65,.31-.43,.72-.75,1.24-.98,.51-.22,1.08-.33,1.7-.33,.67,0,1.25,.12,1.73,.37,.47,.25,.84,.59,1.1,1.03,.25,.44,.38,.96,.38,1.56s-.13,1.11-.4,1.55Z"/>
  </g>
  <g>
    <path class="cls-14" d="M432.22,401.46c-.84,.59-1.86,.88-3.07,.88-.8,0-1.51-.13-2.13-.39-.62-.26-1.14-.65-1.57-1.15-.42-.5-.74-1.09-.96-1.77-.21-.68-.32-1.42-.32-2.24s.11-1.58,.32-2.26c.22-.68,.53-1.26,.93-1.76s.91-.87,1.52-1.14,1.3-.39,2.08-.39,1.48,.13,2.1,.39c.62,.26,1.14,.64,1.54,1.14s.67,1.09,.78,1.79h3.94c-.13-1.39-.55-2.61-1.28-3.66-.73-1.05-1.69-1.87-2.9-2.46-1.21-.59-2.61-.88-4.18-.88s-2.83,.26-3.93,.78-2.03,1.21-2.76,2.07-1.28,1.82-1.62,2.88c-.35,1.06-.53,2.13-.53,3.21v.53c0,.99,.17,2.01,.51,3.06s.88,2.02,1.6,2.92c.73,.89,1.65,1.62,2.79,2.18s2.49,.84,4.06,.84c1.67,0,3.12-.32,4.34-.96,1.22-.64,2.18-1.49,2.89-2.55,.71-1.06,1.14-2.23,1.28-3.5h-3.92c-.17,1.04-.68,1.85-1.52,2.44Z"/>
    <path class="cls-14" d="M457.63,399.3c1.04-.42,1.84-1.05,2.42-1.89,.58-.85,.87-1.92,.87-3.21v-.38c0-1.3-.29-2.38-.86-3.24-.57-.87-1.4-1.53-2.46-1.96-1.07-.44-2.33-.66-3.78-.66h-6.86v17.59h3.92v-5.59h2.84l3.83,5.59h4.54l-4.46-6.25Zm-1.04-3.75c-.24,.42-.56,.75-.98,.98-.41,.23-.91,.34-1.48,.34h-3.25v-5.59h3.25c.57,0,1.07,.12,1.48,.35,.42,.23,.74,.56,.98,.98s.36,.92,.36,1.49c0,.54-.12,1.03-.36,1.45Z"/>
    <polygon class="cls-14" points="474.92 398.31 481.52 398.31 481.52 395.06 474.92 395.06 474.92 391.35 481.9 391.35 481.9 388.1 474.92 388.1 474.45 388.1 471.1 388.1 471.1 405.55 474.45 405.55 474.92 405.55 482.07 405.55 482.07 402.3 474.92 402.3 474.92 398.31"/>
    <path class="cls-14" d="M502.44,388.1h-6.33l-5.76,17.45h3.92l1.38-4.32h7.29l1.41,4.32h4.07l-5.98-17.45Zm-5.75,9.87l2.13-6.64h.87l2.18,6.64h-5.18Z"/>
    <polygon class="cls-14" points="514.37 391.54 519.29 391.54 519.29 405.55 523.21 405.55 523.21 391.54 528.14 391.54 528.14 388.1 514.37 388.1 514.37 391.54"/>
    <polygon class="cls-14" points="541.12 398.31 547.71 398.31 547.71 395.06 541.12 395.06 541.12 391.35 548.1 391.35 548.1 388.1 541.12 388.1 540.64 388.1 537.29 388.1 537.29 405.55 540.64 405.55 541.12 405.55 548.26 405.55 548.26 402.3 541.12 402.3 541.12 398.31"/>
    <polygon class="cls-14" points="576.44 395.99 575.68 395.99 572.12 388.1 568.1 388.1 573.2 398.95 574.06 398.95 574.06 405.55 577.91 405.55 577.91 398.95 578.77 398.95 583.45 388.1 579.65 388.1 576.44 395.99"/>
    <path class="cls-14" d="M608.75,393.3c-.4-1.06-.99-2.02-1.77-2.88-.78-.86-1.76-1.55-2.92-2.07-1.16-.51-2.51-.77-4.04-.77s-2.9,.26-4.05,.77c-1.16,.52-2.13,1.21-2.92,2.07-.79,.86-1.38,1.82-1.77,2.88-.39,1.06-.58,2.13-.58,3.22v.52c0,.99,.19,2.01,.57,3.05,.38,1.04,.96,2.02,1.72,2.92,.77,.9,1.74,1.63,2.91,2.18,1.17,.56,2.54,.84,4.12,.84s2.95-.28,4.12-.84c1.18-.55,2.14-1.28,2.91-2.18,.76-.9,1.34-1.88,1.72-2.92,.38-1.04,.57-2.06,.57-3.05v-.52c0-1.09-.2-2.16-.59-3.22Zm-3.75,5.65c-.24,.67-.6,1.26-1.06,1.77s-1.02,.91-1.68,1.2c-.67,.29-1.41,.43-2.24,.43s-1.57-.14-2.22-.43c-.66-.29-1.22-.69-1.69-1.2-.47-.51-.82-1.1-1.06-1.77-.24-.66-.36-1.38-.36-2.15,0-.81,.12-1.55,.36-2.23,.24-.68,.59-1.26,1.06-1.76,.47-.49,1.03-.87,1.69-1.15,.65-.27,1.39-.4,2.22-.4s1.55,.13,2.21,.4c.66,.28,1.23,.66,1.7,1.15,.47,.5,.83,1.08,1.07,1.76,.25,.68,.38,1.42,.38,2.23s-.13,1.49-.38,2.15Z"/>
    <path class="cls-14" d="M630.02,398.59c0,.78-.14,1.45-.42,2.01-.28,.56-.7,.99-1.25,1.29s-1.24,.45-2.03,.45-1.47-.15-2.02-.45-.97-.74-1.27-1.3-.44-1.23-.44-2v-10.49h-3.92v10.35c0,1.55,.29,2.88,.88,4.02,.59,1.13,1.45,2.01,2.59,2.63,1.14,.62,2.53,.93,4.17,.93s3.05-.31,4.18-.93c1.13-.62,1.99-1.5,2.58-2.63,.59-1.13,.88-2.47,.88-4.02v-10.35h-3.94v10.49Z"/>
    <path class="cls-14" d="M654.89,399.3c1.04-.42,1.85-1.05,2.42-1.89,.58-.85,.87-1.92,.87-3.21v-.38c0-1.3-.28-2.38-.86-3.24-.57-.87-1.39-1.53-2.46-1.96-1.07-.44-2.33-.66-3.78-.66h-6.86v17.59h3.92v-5.59h2.84l3.83,5.59h4.54l-4.46-6.25Zm-1.04-3.75c-.23,.42-.56,.75-.98,.98-.41,.23-.9,.34-1.48,.34h-3.25v-5.59h3.25c.58,0,1.07,.12,1.48,.35,.42,.23,.75,.56,.98,.98,.24,.42,.36,.92,.36,1.49,0,.54-.12,1.03-.36,1.45Z"/>
    <rect class="cls-14" x="680.12" y="388.1" width="3.92" height="17.45"/>
    <polygon class="cls-14" points="704.55 397.9 704.1 397.9 700.11 388.1 694.7 388.1 694.7 405.55 698.29 405.55 698.29 392.16 702.33 402.01 706.06 402.01 710.12 392.05 710.12 405.55 713.99 405.55 713.99 388.1 708.5 388.1 704.55 397.9"/>
    <path class="cls-14" d="M737.25,390.82c-.57-.92-1.38-1.63-2.44-2.12-1.06-.49-2.33-.74-3.82-.74h-6.38v17.59h3.92v-4.99h2.46c1.49,0,2.76-.25,3.82-.74,1.06-.5,1.87-1.2,2.44-2.12,.56-.92,.84-2,.84-3.24v-.38c0-1.26-.28-2.35-.84-3.26Zm-3.49,4.97c-.24,.44-.57,.77-1.01,1.01s-.96,.36-1.56,.36h-2.66v-5.81h2.66c.6,0,1.12,.12,1.56,.36,.44,.24,.77,.58,1.01,1.02,.23,.44,.34,.95,.34,1.54s-.11,1.08-.34,1.52Z"/>
    <path class="cls-14" d="M756.43,388.1h-6.33l-5.77,17.45h3.92l1.39-4.32h7.28l1.42,4.32h4.07l-5.98-17.45Zm-5.75,9.87l2.12-6.64h.88l2.18,6.64h-5.18Z"/>
    <path class="cls-14" d="M781.73,401.46c-.84,.59-1.86,.88-3.07,.88-.8,0-1.51-.13-2.13-.39-.62-.26-1.14-.65-1.57-1.15-.42-.5-.74-1.09-.96-1.77-.21-.68-.32-1.42-.32-2.24s.11-1.58,.32-2.26c.22-.68,.53-1.26,.93-1.76s.91-.87,1.52-1.14,1.3-.39,2.08-.39,1.48,.13,2.1,.39c.62,.26,1.14,.64,1.54,1.14s.67,1.09,.78,1.79h3.94c-.13-1.39-.55-2.61-1.28-3.66-.73-1.05-1.69-1.87-2.9-2.46-1.21-.59-2.61-.88-4.18-.88s-2.83,.26-3.93,.78-2.03,1.21-2.76,2.07-1.28,1.82-1.62,2.88c-.35,1.06-.53,2.13-.53,3.21v.53c0,.99,.17,2.01,.51,3.06s.88,2.02,1.6,2.92c.73,.89,1.65,1.62,2.79,2.18s2.49,.84,4.06,.84c1.67,0,3.12-.32,4.34-.96,1.22-.64,2.18-1.49,2.89-2.55,.71-1.06,1.14-2.23,1.28-3.5h-3.92c-.17,1.04-.68,1.85-1.52,2.44Z"/>
    <polygon class="cls-14" points="794.84 391.54 799.76 391.54 799.76 405.55 803.68 405.55 803.68 391.54 808.61 391.54 808.61 388.1 794.84 388.1 794.84 391.54"/>
  </g>
  <g>
    <path class="cls-1" d="M981.18,349.52v-126.88h-24.88v37.57h-37.17v-37.57h-24.87v106.79c-15.33-3.04-30.76-5.84-46.26-8.38h.66c1.19,0,2.36-.03,3.49-.08h.01c6.25-.29,11.64-1.37,16.16-3.26,5.35-2.23,9.4-5.44,12.16-9.63,2.77-4.19,4.15-9.22,4.15-15.11v-1.87c0-6.24-1.56-11.23-4.68-14.97-2.15-2.59-4.87-4.66-8.12-6.24,1.51-1.1,2.85-2.34,4.04-3.73,3.16-3.69,4.75-8.62,4.75-14.77v-2.01c0-8.82-3.12-15.62-9.36-20.39-6.24-4.77-15.07-7.15-26.48-7.15h-38.24v93.02c-6.58-.88-13.17-1.72-19.78-2.51v-89.71h-35.17l-19.92,51.48h-2.68l-20.05-51.48h-34.5v80.66c-4.69-.19-9.38-.35-14.08-.5l-13.91-41.95-12.67-38.21h-39.84l-12.31,38.41-13.39,41.76c-6.65,.21-13.3,.47-19.93,.77l-10.02-14.3-2.22-3.17c1.33-.59,2.6-1.23,3.79-1.95,3.77-2.22,6.84-5.05,9.22-8.5,1.68-2.45,2.94-5.21,3.78-8.29,.82-3.02,1.23-6.34,1.23-9.97v-2.13c0-7.31-1.65-13.44-4.95-18.39s-8.02-8.69-14.17-11.23c-6.15-2.54-13.46-3.81-21.93-3.81h-40.51v87.2c-3.87,.38-7.74,.78-11.61,1.19l-29.04-87.59h-39.85l-32.12,100.2-.62,1.94c-2.26,.41-4.53,.83-6.79,1.25l-.66-1.97-33.62-101.42h-39.85l-42.51,125.02-1.9,5.61c-60.47,16.65-119.33,37.17-176.3,61.28,157.2-44.41,322.09-64,492.23-69.28,.03-.13,.07-.38,.09-.47,1.26-5.74,5.1-10.5,10.24-13.02,2.53-1.25,5.39-1.95,8.41-1.95,3.2,0,6.22,.79,8.87,2.19,3.05-6.48,9.65-10.97,17.29-10.97,2.75,0,5.35,.58,7.71,1.62,.71-.78,1.39-1.58,2.03-2.42,2.61-3.4,4.65-7.27,5.97-11.46,.35-1.11,1.84-5.85,2.1-12.75,.02-.58,.04-1.18,.04-1.79l3.7-.23c-.05,.6-.09,1.28-.11,2.02-.04,.66-.06,1.37-.07,2.1-.15,7.48,1.93,14.9,6.27,21,.27,.38,.54,.75,.82,1.11,.51,.66,1.04,1.31,1.59,1.93,2.02-.73,4.2-1.13,6.47-1.13,7.64,0,14.24,4.49,17.29,10.97,2.65-1.4,5.67-2.19,8.87-2.19s6.44,.85,9.16,2.34c4.83,2.64,8.4,7.31,9.55,12.87,0,.02,.02,.1,.02,.14,169.57,5.02,331.54,22.61,488.32,66.51-59.21-24.7-120.42-45.52-183.34-62.17ZM295.61,242.7h5l10.85,34.63h-26.41l10.56-34.63Zm-34.2,103.3l1.82-5.05,15.62-43.3h38.98l8.44,30.6,.76,2.73c-22.06,4.51-43.94,9.52-65.62,15.02Zm147.86-103.3h4.99l10.85,34.63h-26.41l10.57-34.63Zm-23.67,77.6l.33-1.09,6.57-21.56h38.98l4.84,15.41c-17.01,2.12-33.91,4.53-50.72,7.24Zm111.8-13.5v-16.5h14.15l9.77,14.77c-7.99,.51-15.96,1.09-23.92,1.73Zm29.75-42.31c-1.21,2.14-2.88,3.79-5.02,4.95-2.14,1.16-4.68,1.74-7.62,1.74h-17.11v-28.48h17.11c2.94,0,5.48,.58,7.62,1.74,2.14,1.15,3.81,2.8,5.02,4.94,1.2,2.14,1.8,4.68,1.8,7.62s-.6,5.35-1.8,7.49Zm235,45.11c-21.52-2.2-43.19-3.93-64.98-5.17v-56.82l21.13,52.98h22.59l21.26-53.6v62.61Zm68.46-68.78h15.24c3.66,0,6.31,.92,7.96,2.75,1.65,1.82,2.47,4.43,2.47,7.82s-.82,5.86-2.47,7.69c-1.65,1.83-4.3,2.74-7.96,2.74h-15.24v-21Zm0,39.45h18.85c3.66,0,6.38,.92,8.16,2.74,1.78,1.83,2.67,4.53,2.67,8.09s-.89,6.29-2.67,8.16c-1.78,1.87-4.5,2.81-8.16,2.81h-18.85v-21.8Zm125.69,62.91c-12.32-3.02-24.72-5.88-37.17-8.58v-52.73h37.17v61.31Z"/>
    <g>
      <path class="cls-2" d="M639.67,306.46c0,2.71-.42,5.33-1.18,7.8-2.31-7.37-7.77-13.34-14.8-16.31-2.25-.95-4.67-1.6-7.19-1.89-.69-.08-1.39-.13-2.1-.15-.71,.02-1.41,.07-2.1,.15-2.52,.29-4.94,.94-7.19,1.89-7.03,2.97-12.49,8.94-14.8,16.31-.76-2.47-1.18-5.09-1.18-7.8,0-8.63,4.18-16.28,10.61-21.03-1.78-4.1-2.77-8.62-2.77-13.37,0-12.69,7.04-23.74,17.43-29.45,10.39,5.71,17.43,16.76,17.43,29.45,0,4.75-.99,9.27-2.77,13.37,6.43,4.75,10.61,12.4,10.61,21.03Z"/>
      <circle class="cls-14" cx="614.4" cy="267.6" r="7.08"/>
    </g>
  </g>
</svg>