<svg
   width="100%"
   height="100%"
   viewBox="0 0 295.41351207385867 192.5121867035866"
   version="1.1"
   id="rajasthan-svg-map"
   xmlns="http://www.w3.org/2000/svg">
  <g transform="translate(22.332222678951, 21.8847752262548)">
    <path id="path67" name="path67" transform="scale(0.26458333)" d="m 799.71161,294.61365 c -1.47531,-0.0919 -1.29128,1.89416 -2.50282,2.30675 -1.42799,0.86033 -3.20187,0.44638 -4.66798,1.25348 -1.24184,0.57443 -2.92182,0.80801 -3.53324,2.18165 -0.47997,0.7768 -1.52214,0.92746 -2.15988,0.26398 -1.02166,-0.43789 -1.3553,0.9316 -0.8469,1.59645 0.62849,1.48803 0.35664,3.43613 -1.08944,4.33884 -1.31419,1.31884 -1.12771,3.53057 -0.28381,5.04951 0.29902,0.85615 0.22228,2.47909 1.55774,2.10647 0.80096,-0.25147 1.78523,-0.14258 1.91668,0.88006 0.23489,1.15306 0.22708,2.57225 1.4122,3.24211 1.43405,1.12421 3.61708,0.62168 4.9244,1.89666 0.33148,1.48392 -0.80883,2.86207 -1.36147,4.16909 -0.44678,1.12246 -1.45978,1.90451 -2.69012,1.91955 -1.61201,0.3136 -2.96614,1.3334 -4.42849,1.96534 -0.69562,-0.45687 0.98333,-1.43682 0.17777,-2.15378 -0.88172,-0.53404 -2.17152,-0.24274 -3.00903,0.28305 -1.03267,0.84268 -1.1854,2.25297 -1.61782,3.38669 -1.04421,0.70242 -1.80507,-0.85852 -2.61192,-1.28479 -1.17997,-0.98206 -2.50639,0.2374 -3.03127,1.31636 -0.35766,0.7103 -0.74528,1.32992 -1.55819,0.81758 -1.25579,-0.27256 -2.41091,-1.2953 -2.13127,-2.68936 0.10738,-1.30098 -1.50132,-1.4661 -2.34566,-0.89226 -0.92184,0.30545 -1.41696,1.74069 -2.5589,1.18866 -1.06791,-0.60053 -1.92869,-2.02739 -3.33366,-1.56174 -1.18939,-1.08521 -1.60462,-3.40823 -3.57132,-3.34282 -1.43013,0.0331 -3.33175,-0.9428 -4.37127,0.49172 -1.17996,0.99779 0.0946,2.2577 0.23995,3.37143 -0.1185,1.09098 -2.22894,1.59686 -1.28136,2.80456 1.16509,0.46761 2.46602,0.46821 3.64685,0.96855 0.61717,0.0546 1.27121,0.028 1.55983,0.69275 0.50385,0.73488 1.52085,0.40477 2.14768,0.77172 0.71051,1.07171 0.48465,2.62115 1.44615,3.51066 -0.2684,1.03191 0.0266,2.13786 0.97084,2.72942 1.22579,0.9067 1.18497,2.99376 -0.23384,3.68576 -1.14396,1.07845 -2.78894,2.117 -2.67983,3.90281 0.18383,2.31941 -1.29137,4.29939 -1.66015,6.49224 0.34738,1.09574 1.45348,0.39983 1.94015,-0.15907 0.88814,0.1211 1.84589,-0.12609 2.28997,-1.00098 0.74586,-0.9406 0.92976,-2.25796 1.63269,-3.16353 0.69871,-0.035 1.24595,0.66854 2.00805,0.37041 1.27069,-0.22621 2.3969,-0.91684 3.67661,-1.08757 0.67488,-0.38721 1.03716,-1.13875 1.85318,-1.3237 0.44915,-0.51986 1.01339,-0.42764 1.60255,-0.24681 0.76713,0.0106 1.54854,-0.13219 2.15416,0.46501 0.83586,0.37899 1.81305,-0.55588 2.59209,0.16823 1.82126,1.58319 3.50913,3.36692 5.69191,4.46663 0.98904,0.75949 2.45784,2.08975 1.84288,3.48586 -0.44631,0.6085 -1.6417,1.54723 -0.57297,2.20833 1.29678,0.0684 2.55272,-0.66355 3.8493,-0.827 1.28249,-0.22625 2.68163,-0.77283 3.92156,-0.51768 0.77316,0.8338 1.99205,1.4642 2.41705,2.53334 -0.67234,0.71563 -0.96574,1.83309 -0.27046,2.64855 0.58026,1.0905 1.95855,1.86112 2.0134,3.16543 -0.43695,1.50935 -3.25273,0.50463 -2.98146,2.34779 0.33774,1.52724 -1.50454,2.98399 -2.79895,2.63993 0.0439,-0.5953 0.87949,-1.03788 0.36811,-1.70174 -0.7803,-0.94792 -2.19058,-0.17317 -3.16772,-0.76522 -0.86006,-0.0251 -1.51868,-0.65973 -1.38626,-1.53122 -0.5158,-1.3747 -1.96915,0.0657 -2.91901,-0.44747 -1.50589,-0.67984 -2.84912,1.06598 -3.24211,2.33994 -0.39409,1.98955 2.04035,3.53923 1.26381,5.54542 -0.55677,0.77055 -2.01821,0.15674 -2.08473,1.39122 0.0367,0.75808 -0.0164,1.53816 -0.75696,1.96784 -1.99363,1.64025 -2.63222,4.28752 -3.36368,6.64346 0.0894,1.71667 1.27157,3.30533 2.62757,4.28772 1.56016,0.51928 2.97975,1.54011 3.71208,3.04146 0.36265,0.67711 1.50321,0.31686 1.48201,1.28403 0.35854,1.61295 2.64528,1.6962 3.80554,0.94833 1.04145,-0.62827 0.68554,-1.87889 0.82932,-2.85149 0.71842,-1.28967 2.5804,-0.81264 3.75976,-1.02157 0.86442,-0.1976 1.76434,0.29196 2.56691,0.008 0.60867,-0.45092 0.132,-1.49786 1.05286,-1.717 1.08637,-0.50206 0.81154,-2.41231 2.23497,-2.27017 1.17623,0.0955 2.52274,-0.26084 3.61563,0.23351 0.85947,0.64001 0.33854,2.44197 1.71623,2.43187 1.32617,-0.0776 2.09103,-1.36357 2.68593,-2.35405 0.8893,-0.5518 1.55628,1.02978 2.46811,1.09596 1.18336,0.33799 1.67105,-1.63431 2.88162,-0.87852 1.03025,0.49685 2.23159,1.97095 3.40424,0.98495 0.87259,-0.92724 0.0694,-2.1946 -0.67406,-2.89116 -0.38221,-2.12027 1.3393,-3.80195 2.61955,-5.23872 1.37353,0.0776 2.94271,0.30142 4.00391,-0.78278 0.74167,-0.27093 1.5299,-0.45513 2.16904,-0.92735 0.97352,-0.47004 1.98109,-0.85868 3.08494,-0.76828 1.43757,0.11809 2.40397,-1.65096 1.51787,-2.77252 -1.4771,-1.2753 -3.44165,0.38695 -5.09262,-0.0881 -0.43347,-0.54343 0.29768,-1.36507 0.37002,-1.94321 0.80341,-1.89873 1.32773,-4.08763 0.83924,-6.12068 -0.50734,-0.46731 -0.83643,-1.16327 -0.28801,-1.80206 0.63156,-0.63765 0.4202,-1.62733 -0.38567,-1.9619 0.008,-0.8926 0.48449,-1.86885 0.0168,-2.73934 -0.50816,-0.8694 0.51778,-1.14469 1.14784,-1.15585 1.30155,-0.35775 -0.17398,-2.24679 1.22986,-2.45895 2.06035,-0.41573 2.27884,-2.92215 2.71873,-4.58489 0.41692,-2.12973 1.38124,-4.50572 3.66249,-5.17921 1.41309,-0.40794 2.77306,-1.37841 3.0304,-2.90757 0.76834,-1.37068 1.49894,-3.29487 3.29285,-3.48549 1.18698,-0.75581 1.10721,-2.49995 2.03514,-3.51448 0.3728,-0.88475 1.5282,-0.97745 1.66206,-2.005 0.53807,-1.47756 -0.42232,-3.23737 -2.01073,-3.48282 -0.90605,-0.55329 -1.68418,0.19639 -2.45933,0.55351 -2.11839,0.0897 -4.02757,-1.75526 -6.17066,-1.11351 -1.55924,-0.45272 -3.21101,-0.68726 -4.77981,-0.98076 -0.89799,-0.39598 -0.48034,-1.37056 0.10109,-1.82495 0.98261,-0.74487 0.72637,-2.00645 -0.0137,-2.79655 0.12763,-0.75229 0.17776,-1.86742 -0.85602,-1.96228 -1.18572,-0.34839 -2.42172,0.27876 -3.57552,0.15259 -0.80274,-0.62316 -0.4136,-1.80226 -1.07307,-2.54326 0.20317,-0.8961 0.85806,-2.03249 1.79214,-2.314 0.59223,-0.0187 1.22967,-0.0178 1.48277,0.60234 0.83615,0.94097 2.59611,0.31891 2.39335,-1.01433 -0.15256,-0.96986 0.34748,-1.81006 0.52223,-2.705 -0.50616,-0.92177 -2.42334,-0.64524 -2.29836,-2.03933 -0.21716,-1.10583 0.81867,-1.78435 1.791,-1.87951 1.1734,-0.75241 -0.50035,-2.02681 0.14343,-3.0838 0.36164,-0.74277 1.26185,-1.4254 0.73548,-2.3407 -0.67936,-0.90903 0.37419,-1.6842 0.92888,-2.27508 0.43572,-1.1017 -1.01133,-1.36608 -1.78414,-1.25885 -1.3851,-0.25947 -3.07336,-0.41606 -4.03709,-1.55106 -0.24464,-0.57681 0.27184,-1.53891 -0.6752,-1.69983 -2.22316,0.0543 -3.66237,2.6827 -6.04058,2.19803 -1.6844,-0.11467 -3.26562,-1.45413 -4.93308,-0.52373 -2.86281,0.78248 -5.85749,0.41561 -8.8147,0.76444 -1.23327,-0.44666 -1.49193,-2.05139 -2.2934,-2.97928 -0.40313,-0.67059 -1.07923,-1.15934 -1.89171,-1.07269 z" style="fill:#ff9eb0;fill-opacity:1;stroke:#ffffff;stroke-width:1.5;stroke-linejoin:round;stroke-linecap:round;" />
    <path id="path68" name="path68" transform="scale(0.26458333)" d="m 835.45912,299.20969 c -0.27618,0.0347 -0.51045,0.24489 -0.5893,0.50973 -0.0787,0.21173 -0.18257,0.43634 -0.11872,0.6665 0.0701,0.34344 0.42979,0.59108 0.77581,0.53681 0.21923,-0.0293 0.40452,-0.16376 0.5946,-0.26647 0.23446,-0.13995 0.34842,-0.42217 0.32678,-0.68825 0.003,-0.30835 -0.21691,-0.59626 -0.51353,-0.67831 -0.15255,-0.0546 -0.31181,-0.10151 -0.47564,-0.08 z" style="fill:#ff9eb0;fill-opacity:1;stroke:#ffffff;stroke-width:1.5;stroke-linejoin:round;stroke-linecap:round;" />
    <path id="path66" name="path66" transform="scale(0.26458333)" d="m 755.15851,445.38578 c -1.08274,-0.037 -1.20145,1.24482 -1.20436,2.04943 -0.08,1.16966 -0.0429,2.53545 -1.10273,3.30895 -0.48333,0.95567 0.60767,1.78496 0.77632,2.72869 0.30333,0.68862 0.10984,1.65816 -0.78198,1.73281 -1.64603,0.50998 -3.16036,-0.65969 -4.77925,-0.57832 -0.71509,0.16825 -0.61175,1.00196 -0.38222,1.51054 -0.47744,2.37493 -1.31169,4.66646 -1.9451,7.00352 -0.47119,0.31791 -1.5683,0.88509 -1.74413,-0.0351 -0.24006,-0.83562 0.18054,-2.12275 -0.7925,-2.58384 -1.11716,-0.17495 -1.29117,1.25893 -1.58648,2.01749 -0.36168,1.14517 -0.70711,2.59602 -1.83058,3.23219 -1.27456,-0.26053 -1.50701,2.01186 -2.79667,1.44391 -0.64807,-0.70404 -1.58804,-1.34976 -2.59328,-0.99696 -0.92783,0.19821 -1.53966,0.97303 -2.08697,1.6527 -0.87683,0.1691 -1.87461,-1.10479 -2.60164,-0.12947 -0.20567,0.34873 -0.0566,0.88565 -0.61447,0.92197 -0.72205,0.21174 -1.74111,0.28473 -2.01145,-0.62283 -0.77878,-1.16318 -0.96004,-2.85812 -2.27687,-3.57702 -0.51165,-0.16812 -1.11008,-0.1383 -1.32901,-0.76525 -0.6854,-1.19556 -0.5242,-3.01624 -1.88441,-3.72646 -0.4319,-0.24202 -1.24806,0.12798 -1.08354,-0.64738 -0.38793,-0.99859 -1.70194,-0.57488 -2.52315,-0.97726 -1.51719,-0.70351 -3.09938,-1.32575 -4.78815,-1.44824 -1.36143,-0.0616 -2.88991,-0.30182 -4.11302,0.41139 -0.7424,0.51546 0.0143,1.41875 0.73237,1.40019 0.68491,0.23148 1.46381,0.21994 2.13203,0.40029 0.30578,0.55634 0.34973,1.6319 -0.51629,1.63651 -1.03204,0.12782 -2.08469,0.35548 -3.12035,0.26084 -0.80308,-0.74908 -0.96008,-2.25105 -2.21537,-2.43899 -1.14356,-0.46743 -1.30375,-1.7771 -1.79334,-2.72732 -0.69332,-0.56952 -1.70131,0.0223 -2.53329,-0.0262 -0.96649,0.22885 -1.86176,-0.26416 -2.44519,-1.00937 -0.63207,-0.77812 -2.48941,-0.37573 -2.1099,0.79978 0.9282,1.31322 0.34315,3.09606 1.16204,4.42967 0.53872,0.43302 0.75519,1.05236 0.8726,1.70988 0.75499,1.19202 0.11584,2.6893 0.58372,3.95951 0.63977,0.85173 1.52835,-0.0409 2.09318,-0.49767 1.60103,-1.27452 4.02525,-1.08779 5.47923,0.32423 0.45939,0.363 0.99706,0.83749 0.64926,1.48842 -0.61942,1.39929 -2.36662,1.14005 -3.59259,0.99252 -0.72458,-0.0333 -2.00533,-0.43099 -2.1704,0.61952 -0.10506,0.68069 0.91512,0.90395 0.6498,1.627 -0.097,0.93732 -0.64003,1.84294 -0.27999,2.80205 0.13776,0.89417 0.87003,2.26746 1.95912,1.70989 1.16653,-0.65639 2.50695,-1.73354 3.91366,-1.05469 1.12975,0.49256 1.0451,1.8857 1.58229,2.78183 0.71533,0.3472 1.67142,-0.33609 2.2178,0.50172 0.89882,0.75595 2.34908,0.2468 3.1422,1.12508 0.75244,1.33214 -0.32277,2.75023 -0.0696,4.11677 0.31413,0.83221 1.50271,0.49865 1.8728,1.31714 0.61319,1.23254 -0.29356,2.57138 -1.18847,3.3944 -0.89,1.11533 -1.63227,3.78398 0.21606,4.27943 0.96689,-0.16598 1.62878,-1.12125 2.66692,-1.14775 1.29559,-0.24374 3.16343,-0.0525 3.4934,1.49652 0.27753,0.99456 -1.05091,1.98633 -0.22523,2.90024 0.93527,0.87828 2.06356,1.48499 3.20478,2.05704 0.91238,0.37121 0.92973,1.44467 0.4394,2.16331 -0.32638,0.67894 -0.71911,1.99644 0.34257,2.21511 0.45362,0.20436 0.957,-0.80843 1.17661,-0.16643 0.26871,0.79462 1.38169,0.56809 1.56341,-0.16508 0.51213,-0.99735 1.34049,-1.87299 2.37695,-2.30898 0.70389,-0.62582 -0.0112,-1.64603 0.63766,-2.33298 0.55715,-0.93734 1.61294,-1.3861 2.65505,-1.44634 0.6149,-0.23053 1.08753,-0.78909 1.79701,-0.69701 0.69525,-0.1783 1.27727,-0.62257 1.97045,-0.81003 0.7325,-0.38649 0.37317,-1.72147 1.33467,-1.81238 1.0912,-0.36274 1.78568,-1.31405 2.67825,-1.95777 1.09826,-0.48749 2.24051,0.55361 3.36122,0.0356 1.24391,-0.23477 2.93416,0.0973 3.29461,1.51082 0.47328,0.99869 0.5083,2.10439 0.60421,3.17672 0.17135,0.65669 1.17719,0.66905 1.13021,1.47224 0.0389,1.23501 1.16926,2.27589 2.29333,2.66962 0.86364,0.25803 1.85959,-0.063 2.5922,0.58776 0.76996,0.29761 1.98107,0.82151 2.53583,-0.0281 0.0966,-0.38466 -0.18083,-1.17708 0.44156,-0.96001 0.75818,0.84443 1.82032,1.51002 3.00841,1.30582 0.8787,-0.0118 1.37688,-0.92128 2.04026,-1.24191 1.86939,-0.0385 3.32304,1.50787 5.2061,1.4464 0.63857,0.016 1.33601,0.045 1.66577,0.70076 0.62339,0.75273 1.72222,1.79665 2.70772,0.97537 0.83479,-0.73126 2.0754,-1.05939 2.50049,-2.18408 0.69135,-0.32709 1.26405,0.68151 1.96829,0.69808 1.09685,0.0979 1.48222,1.41003 1.30527,2.34566 -0.0846,0.57437 -0.39809,1.42956 0.39517,1.6616 0.81029,0.0737 1.64803,-0.0328 2.4077,0.37008 1.81641,0.66719 3.79849,0.37661 5.65267,0.0583 1.08708,-0.24841 1.20163,-1.47565 1.15961,-2.39206 0.31262,-0.72676 -0.30382,-1.42418 -1.04497,-1.4102 -0.74233,-0.0694 -1.85998,-0.41329 -1.57825,-1.38673 0.0515,-1.61155 1.81907,-2.00665 2.8649,-2.82903 0.90897,-0.53588 1.18636,-1.95901 0.22119,-2.59517 -0.51794,-0.46919 -1.2472,-0.40291 -1.7935,-0.81731 -0.81784,-0.36291 -1.87517,-0.0971 -2.59517,-0.63524 0.0605,-1.69358 0.31289,-3.55702 1.60361,-4.79111 0.44613,-0.93107 1.25824,-1.59114 2.12312,-2.1412 0.61435,-0.30165 1.17216,-1.23195 0.40353,-1.69936 -1.09097,-0.45977 -1.95973,-1.27235 -2.5601,-2.2909 -0.53382,-0.96997 -1.51031,-1.51931 -2.30034,-2.22832 -0.56385,-0.93448 0.37607,-2.04908 -0.14738,-2.94164 -0.70369,-0.60999 -1.7881,-0.23965 -2.64955,-0.32518 -1.03611,-0.0161 -2.14897,0.063 -2.89215,0.88636 -0.46613,0.3581 -1.02237,1.04881 -1.65729,0.86668 -0.44054,-0.44463 0.20776,-1.09112 0.23634,-1.5723 0.43812,-0.71754 0.24171,-1.47131 -0.15676,-2.14094 -0.31119,-1.31716 1.38276,-1.65094 2.12231,-2.36049 0.89981,-1.08524 -1.21914,-2.19881 -0.33879,-3.31052 0.54331,-0.47488 0.87492,-1.51319 -0.0368,-1.78715 -0.87135,-0.40566 -2.08473,-0.61788 -2.91359,-0.029 -0.59443,0.54078 0.13563,1.58405 -0.66895,1.99608 -1.07422,0.46403 -2.24455,-0.53364 -2.46219,-1.56126 -0.75043,-0.7658 -1.85266,-1.21515 -2.90267,-1.38457 -0.54309,0.0327 -1.41819,0.19257 -1.41289,-0.6258 -0.12959,-0.93417 0.0854,-2.01303 -0.58777,-2.77724 0.44448,-0.50715 0.36628,-1.22137 0.44372,-1.81292 0.36754,-0.38061 1.20407,-0.25929 1.1464,-1.01288 -0.11646,-0.50742 -0.44667,-0.93174 -0.47717,-1.47089 -0.42047,-0.76437 -0.85765,-1.6158 -0.44103,-2.50048 0.4392,-1.56202 1.95598,-2.67199 1.88379,-4.39962 0.0109,-0.89215 0.30836,-1.816 0.0524,-2.68456 -0.74584,-0.54289 -1.78346,-0.3223 -2.64547,-0.629 -1.71649,-0.25593 -3.47954,-1.19513 -5.20693,-0.49069 -2.46349,0.67014 -4.7659,-0.93965 -7.16186,-1.15152 z" style="fill:#ff9eb0;fill-opacity:1;stroke:#ffffff;stroke-width:1.5;stroke-linejoin:round;stroke-linecap:round;" />
    <path id="path65" name="path65" transform="scale(0.26458333)" d="m 643.73932,569.30046 c -1.05073,0.30518 -0.8166,1.73613 -1.64413,2.33498 -0.57381,0.57255 -0.5564,1.41022 -0.82131,2.08893 -0.62852,0.48265 -1.50482,1.09503 -2.32658,1.00059 -0.82191,-0.76567 -2.41794,0.13176 -1.79482,1.21689 0.50286,0.72517 2.06127,0.76794 1.67237,1.9661 -0.33244,1.43652 -1.20083,2.8588 -2.30217,3.79219 -1.47931,-0.43031 -2.43615,0.91527 -3.48626,1.6674 -0.72188,0.10888 -1.43456,0.81176 -0.81138,1.52817 0.49758,0.78365 1.87875,1.62165 1.05934,2.6577 -0.48271,1.02305 -0.3726,2.32452 -0.88463,3.26042 -0.80471,0.32561 -1.7529,1.02885 -2.63824,0.77553 -0.44732,-0.33757 0.0655,-1.11812 -0.61264,-1.37406 -0.66386,-0.14486 -1.6581,-0.86657 -0.78316,-1.43508 1.01613,-0.46362 2.97933,0.25921 3.29285,-1.23673 -0.0711,-1.15469 -1.47722,-0.77195 -2.17514,-1.06316 -0.43079,-0.74368 -1.36935,-1.45786 -2.16065,-0.7225 -1.03371,0.7695 -2.15826,1.45303 -3.51028,1.28365 -0.82684,0.0129 -2.34378,0.0792 -2.07596,1.29623 0.17081,0.51087 0.52715,1.28903 -0.25597,1.49384 -0.85342,0.25413 -1.42047,0.98618 -1.91574,1.64375 -1.04541,-0.0812 -1.95482,-1.11455 -3.08685,-0.68665 -1.35909,0.61372 -0.96637,2.81263 -2.57683,3.20893 -0.56945,0.39092 -1.43241,0.54575 -1.37176,-0.42572 0.36025,-1.36696 -0.99024,-1.83961 -1.9558,-1.05515 -1.56114,0.50437 -2.96329,1.42688 -3.85055,2.82326 -0.46747,0.71672 -1.44579,0.60254 -1.79291,-0.15183 -0.54041,-0.83163 -0.92876,-2.11436 -2.19383,-1.74386 -1.9953,-0.20272 -3.66013,1.18154 -5.62897,1.23765 -2.01232,0.15387 -3.77927,1.53969 -4.31977,3.49999 -0.55663,0.81581 -0.52447,2.00597 0.64507,2.14386 1.30552,0.88106 2.3089,2.30053 3.95851,2.56309 1.23239,0.63709 0.3613,2.13603 -0.43182,2.74124 -0.55236,1.26206 0.94986,2.99282 -0.41962,3.99705 -0.61223,0.80279 -1.40033,1.43498 -2.44102,1.45492 -0.92912,0.49964 -1.81338,1.10127 -2.90604,1.22833 -0.89716,0.0968 -2.15676,1.22397 -1.10474,2.00348 0.85645,0.52317 2.64856,0.0809 2.80648,1.38016 -0.67265,1.11958 -0.77064,2.66425 0.37727,3.5305 0.45672,0.67054 2.10746,0.83846 1.75667,1.87912 -0.47599,0.6969 -1.76208,0.84309 -1.44882,1.94664 -0.0297,0.6584 -1.40509,0.20145 -1.95419,0.38221 -1.08264,0.19669 -2.00995,-0.33847 -3.01904,-0.64962 -1.39997,-0.12902 -1.86003,1.77752 -1.50527,2.82211 0.34975,0.75983 1.81076,0.67988 1.83944,1.56823 -0.74359,0.91651 -2.0346,-0.4521 -2.76718,0.58364 -0.52847,0.75917 -1.73286,1.59989 -1.25847,2.63482 1.00831,0.7693 2.24613,-0.35237 3.36342,-0.33646 0.84918,-0.2195 2.38616,0.0554 2.22702,1.20583 -0.716,0.67935 -0.28422,1.80806 0.6855,1.89743 0.76671,-0.0715 1.11743,0.99151 0.3067,1.20735 -0.89034,0.11077 -1.89015,0.13537 -2.47268,0.95062 -0.77181,0.36631 -1.80908,0.29484 -2.31629,1.08948 -0.7428,0.36122 -1.54879,-0.65368 -2.24991,0.0702 -0.92403,1.04519 0.70431,1.93703 1.22948,2.6947 -0.0491,1.47699 -0.12828,3.37024 1.41297,4.17252 1.4551,1.08981 3.27808,1.15983 5.01518,1.1528 1.40008,0.49266 0.84712,2.54827 -0.47074,2.75459 -1.41573,0.24918 -2.87558,-0.38139 -4.25796,-0.13199 -0.75628,0.53493 -0.32786,1.68416 -1.0788,2.29645 -0.72214,0.81805 -0.26081,1.88779 0.55695,2.41852 1.06253,0.5855 1.09032,1.92673 1.88331,2.70691 0.94164,0.43322 1.92031,-0.56869 2.93389,-0.18692 1.24847,0.35121 2.59772,1.34578 3.88298,0.47607 0.64603,-0.254 1.19775,-1.40196 1.89209,-0.64049 0.821,0.73211 -0.17099,1.87822 -0.40169,2.6619 -0.62863,1.13299 -1.37366,2.21261 -1.48506,3.55034 -0.14925,0.73694 -0.39984,1.68603 -1.32256,1.68762 -1.14232,0.48448 -2.49558,0.8484 -2.96898,2.14691 -0.32149,0.76193 -1.38094,1.87817 -0.37574,2.52266 1.18698,0.15914 2.41389,-1.31962 3.56369,-0.40893 -0.0514,1.11955 1.17292,1.80478 2.17743,1.38359 1.50996,-0.50375 2.6888,1.07341 4.19998,1.0395 0.70688,0.2364 1.37587,0.89423 2.16942,0.43564 1.39805,0.26756 2.09,1.81073 2.85453,2.86522 0.88175,0.57526 -0.31916,1.37532 0.15526,2.12669 0.53906,1.15655 -0.29092,2.76071 0.70649,3.69301 0.77603,0.1917 1.57817,0.35926 2.36816,0.52109 1.15748,0.0888 0.85849,-1.38129 1.75705,-1.72882 1.50192,-0.89791 3.37487,-0.17926 5.02304,-0.31288 1.3492,0.0538 1.21428,-1.71133 1.59202,-2.65763 0.0829,-0.61565 0.13198,-1.64875 1.06774,-1.33552 1.93249,0.27213 2.54208,-2.00259 4.09508,-2.65541 0.84933,-0.64049 1.89665,-0.24998 2.82592,-0.39597 0.92256,-1.28453 0.79116,-3.66232 2.59095,-4.19807 0.8063,-0.13335 1.9122,0.35167 2.3365,-0.64698 0.52355,-0.85105 1.06768,-2.06956 -0.10886,-2.66256 -0.26305,-0.33765 -1.41207,-1.07015 -0.50302,-1.24102 0.82548,-0.12001 1.4136,-0.77399 2.15531,-1.00746 0.71056,-0.20352 0.59733,0.99843 1.38969,0.75074 0.58466,-0.0874 1.06744,-0.98834 1.5934,-0.26017 0.9651,0.5736 0.91602,1.98648 2.05841,2.29454 0.91078,0.18583 1.63904,0.70274 2.25599,1.36138 1.09115,0.3536 1.68837,-1.16672 2.4956,-1.71462 1.21299,-1.01341 1.91798,-3.13124 3.82957,-2.84958 1.42237,0.21875 0.16196,2.20217 1.35727,2.72904 1.33931,0.457 2.90174,0.0292 4.16183,0.66948 0.68651,0.5618 -0.16035,1.07238 -0.16822,1.67885 -0.12342,0.6255 0.38869,1.47949 -0.49134,1.67732 -0.89545,0.69142 0.12551,1.68735 0.95957,1.69461 1.49572,0.72512 2.40676,-1.18913 3.8088,-1.32344 1.36166,-0.45751 2.70499,0.29682 4.02527,0.32501 2.02071,-1.24127 3.56034,-3.07556 5.4142,-4.51431 1.4412,-0.1455 3.04523,0.87174 4.38195,0.0851 0.9207,-1.0928 1.39039,-2.90531 2.95829,-3.27034 1.3683,0.40074 1.2638,2.11793 1.19477,3.26118 0.42591,1.42866 2.64221,0.46324 2.59018,-0.7988 0.17061,-1.22323 -0.0792,-2.56018 0.33798,-3.71818 1.55731,-0.95694 3.35918,-1.24335 5.14221,-1.40152 1.29327,-0.0858 2.39953,-1.56252 1.48354,-2.71111 -0.39696,-0.89134 -1.43052,-1.07657 -2.22283,-0.61607 -0.9427,0.16694 -1.88668,-1.06598 -0.9758,-1.76277 0.85182,-1.0802 1.81757,-2.32533 1.87569,-3.7468 -0.33073,-1.21542 -1.82669,-0.34004 -2.57492,-1.05514 -1.03225,-0.56162 -2.61864,-1.8019 -1.7788,-3.07847 0.70231,-0.69034 2.28554,-0.57743 2.20681,-1.92527 -0.13072,-1.02851 0.84759,-2.17767 -0.15221,-2.99721 -0.81873,-0.62076 -1.51876,-2.19593 -2.67601,-1.69601 -0.43937,1.47217 -2.19511,1.40778 -3.43285,1.37367 -0.96099,-0.0548 -2.23384,-0.839 -2.14233,-1.9001 0.44544,-0.75359 0.62218,-1.725 1.1795,-2.37999 1.42136,-0.73839 2.60316,0.76046 3.97034,0.92392 0.24902,0.75226 0.84089,1.81796 1.73425,1.09867 1.66993,-0.56687 2.24498,-2.36001 3.49151,-3.40733 0.9316,-0.2529 1.91099,-1.02603 1.52397,-2.10953 -0.29416,-1.1718 -0.82894,-2.73158 0.33188,-3.59687 0.68679,-1.26226 -0.99528,-1.95017 -1.97831,-2.06185 -0.91452,-0.12543 -1.8909,-0.2414 -2.38227,-1.1261 -1.08705,-0.90572 -2.40911,0.40908 -3.49381,0.69035 -1.35774,0.70697 -1.44107,2.55649 -2.3484,3.71525 -0.70191,0.66957 -1.46581,1.33099 -1.81616,2.29414 -0.33255,0.656 -0.67033,1.59917 -1.58732,1.38971 -0.87594,0.22808 -1.66939,0.76575 -2.62404,0.48777 -1.05303,-0.26212 -1.89976,0.38176 -2.78138,0.79816 -1.58809,0.33405 -3.23589,-0.29267 -4.8172,-0.18615 -1.01559,0.0745 -1.76937,-0.68893 -1.80321,-1.67771 -0.3362,-1.14593 -1.85921,-1.43089 -1.95846,-2.72483 -0.18171,-1.37462 -0.35824,-2.83312 -1.41564,-3.85437 -0.62227,-0.75641 -1.17323,-1.83211 -0.3849,-2.68669 0.66997,-0.92811 0.54006,-2.44345 -0.70038,-2.79847 -1.62674,-0.79033 -3.20021,0.48384 -4.80843,0.63744 -0.40233,0.26937 -1.03943,0.90797 -1.34849,0.11787 -1.39867,-2.10922 -1.87289,-4.66878 -2.25716,-7.12356 -0.32643,-1.15919 1.16636,-0.74645 1.79428,-1.00219 1.64695,-0.47514 3.40304,-0.0225 5.03479,-0.41535 0.96649,-0.81569 1.0282,-2.29671 1.79892,-3.29436 0.76365,-1.57023 2.51244,-2.39625 3.03659,-4.11798 0.59636,-1.16956 1.21057,-2.48386 2.59746,-2.84399 1.42055,-0.59641 1.6866,-2.19751 2.30481,-3.40983 1.03733,-1.40104 3.27533,-1.9988 3.32848,-4.04948 0.0906,-1.09288 0.64811,-2.45566 1.76262,-2.80171 1.26371,-0.0798 2.83958,1.28917 3.68086,-0.22607 0.59456,-0.45917 0.98379,-1.34334 1.70434,-1.59812 1.10155,-0.15161 1.68867,0.75681 2.20795,1.55449 0.83575,0.77456 2.14303,1.21336 3.2547,1.05095 0.99817,-1.48732 1.78795,-3.2284 2.18849,-4.99192 0.0132,-1.72485 -1.09857,-3.20762 -1.43928,-4.87327 -0.60398,-1.95098 -3.1636,-1.71847 -4.25835,-3.15476 -0.50217,-1.44973 0.49828,-2.82173 1.72641,-3.50299 0.82051,-0.48522 2.03305,-1.68827 0.94388,-2.55131 -1.30312,-0.77731 -2.64484,-1.5208 -3.94707,-2.2934 -2.51366,-0.33715 -5.10023,0.0117 -7.60842,0.32284 -1.92287,0.17295 -3.69372,1.1614 -5.60226,1.29116 -0.45958,-0.75104 -1.33774,-1.63058 -2.31476,-1.11885 -0.49585,0.22736 -0.64008,1.00657 -1.32255,0.49476 -1.50556,-0.65247 -3.15939,-1.39291 -4.80461,-0.71182 -1.22356,0.24879 -2.76987,1.22335 -3.8208,0.0805 -0.94291,-0.52009 -2.01678,-0.92618 -3.06931,-1.08986 z" style="fill:#ff9eb0;fill-opacity:1;stroke:#ffffff;stroke-width:1.5;stroke-linejoin:round;stroke-linecap:round;" />
    <path id="path62" name="path62" transform="scale(0.26458333)" d="m 956.52772,450.28115 c -1.42075,0.31334 -2.93511,1.59558 -2.44332,3.20625 0.005,1.16909 0.81171,2.24637 0.68474,3.39279 -0.62654,1.10769 -1.57797,2.34022 -2.98805,2.24381 -1.04169,0.1388 -1.10216,1.86182 -2.28234,1.55029 -0.94476,-0.1534 -2.60438,-0.89778 -2.95334,0.49286 -0.15074,1.19425 0.17114,2.44593 0.86365,3.40728 -0.0565,0.59353 -0.40657,1.23207 -0.19607,1.90201 -0.28096,2.06166 -2.57288,2.66715 -4.105,3.57857 -1.04375,0.50502 -2.14498,-0.0664 -3.19214,0.0431 -0.79702,0.39625 -0.27297,1.11525 0.0107,1.60865 -0.22579,0.99018 0.12574,2.02287 1.07242,2.49562 1.08389,0.914 2.2017,-0.59951 3.4171,-0.50625 1.84085,-0.24883 3.51189,0.91943 5.32417,0.79193 0.32914,0.33324 -0.26929,1.03821 -0.0393,1.52092 0.32124,2.05604 1.00434,4.29478 2.61841,5.69725 0.5264,0.48519 1.07514,1.45258 0.95329,2.05536 -1.21402,0.51176 -1.57459,2.45572 -3.12996,2.20375 -1.17226,-0.47302 -2.48,1.13989 -1.38549,2.01721 0.94022,0.61127 2.1462,0.34235 3.19747,0.3212 0.006,1.09922 0.61176,2.69107 -0.72631,3.29437 -0.87482,0.61604 -2.18577,0.68967 -2.87286,-0.24943 -0.85638,-0.49231 -1.64327,-2.01117 -2.76526,-1.442 -0.9723,0.8419 -0.6972,2.26238 -0.83237,3.36112 -0.90743,0.79976 -2.27909,0.54403 -3.24669,1.30921 -2.07439,1.07271 -3.77074,2.69276 -5.46723,4.25377 -0.81906,0.62823 -1.68015,-0.0688 -2.40669,-0.43869 -1.50691,-0.2323 -2.81609,0.96224 -3.95355,1.79252 -0.77031,0.50866 -0.84333,1.51081 -0.22774,2.16217 -0.10469,1.24799 -1.56252,1.91145 -2.49432,2.52377 -0.61989,0.40752 -1.30358,0.53999 -2.00664,0.41012 -1.13597,0.42691 -1.76263,1.71841 -3.02734,1.93176 -1.59805,0.82076 -3.08652,1.87344 -4.58451,2.845 -0.65796,1.04001 0.43434,2.28798 -0.1255,3.4153 -0.3395,1.79628 -2.42746,1.4661 -3.76587,1.82991 -1.11657,0.14855 -2.30188,0.79799 -2.23961,2.08282 -0.2601,0.80057 0.13266,2.04507 -0.61073,2.58904 -0.7252,-0.44457 -1.02803,-1.57471 -2.05231,-1.55945 -0.63119,-0.57021 -1.67566,-1.35308 -2.42195,-0.46806 -0.72106,0.63099 -0.72538,2.51549 -2.06871,1.99432 -1.22022,-0.23235 -1.43531,1.36344 -0.57526,1.94435 0.16609,1.06264 -0.10815,2.23496 -1.12342,2.7874 -0.76019,1.11928 0.83977,1.43736 1.65481,1.15738 0.58752,0.0615 1.28741,-0.70227 1.76277,-0.35248 0.0256,0.99137 1.14011,1.61108 1.02196,2.61384 -0.75292,1.20781 -2.57179,1.7564 -2.61879,3.38554 -0.67514,1.3012 1.07564,1.98024 1.92899,2.51441 2.16557,1.08629 4.31937,2.2887 6.6289,3.02605 1.36248,0.10822 1.55171,2.57037 3.06244,2.05117 0.85024,-0.58333 1.35829,-2.04191 2.6516,-1.56059 1.38803,0.41844 2.76276,1.24205 3.31077,2.6493 0.34441,0.83737 1.29188,0.56531 1.92185,0.89569 1.83807,1.61415 2.29781,4.49229 4.70047,5.54009 1.50507,0.47519 2.94787,1.52376 3.21388,3.18222 0.23938,1.14925 1.39918,1.63116 2.46163,1.56288 1.94412,0.45317 1.95146,2.84533 3.29322,3.93333 1.31931,0.38284 2.69954,-0.37059 3.9711,-0.70953 1.40239,-0.46031 1.29419,-2.16943 1.90354,-3.26118 0.47974,-1.33619 0.62919,-3.09391 2.20375,-3.62206 1.71559,-0.76778 3.82704,-0.68388 5.196,-2.14653 2.41025,-1.72783 5.6605,-2.3791 7.38207,-4.96844 1.84251,-2.04177 4.45887,-3.77505 7.32702,-3.44831 1.59758,0.054 3.59688,0.0584 4.42009,-1.61781 1.12887,-1.67548 1.31169,-4.12535 3.44772,-4.9469 2.03306,-0.87161 4.33433,-0.92265 6.51817,-0.96207 1.46737,0.009 3.23418,1.55076 4.52881,0.29984 1.7577,-3.24901 5.59864,-4.34017 8.6219,-6.04899 2.64712,-1.19121 3.09036,-4.34548 4.87259,-6.32818 1.57061,-1.5829 3.50005,-2.73256 5.26125,-4.05845 0.7823,-0.73398 -0.046,-1.81606 -0.9716,-1.68496 -0.7424,-0.50985 -0.5361,-2.03764 -1.7842,-1.91726 -0.56268,0.16754 -1.39499,-0.33504 -0.769,-0.88807 0.8212,-0.75289 0.8246,-2.24137 -0.3273,-2.67295 -0.68315,-0.17935 -1.12907,-0.59855 -1.54724,-1.12229 -1.15071,-0.91574 -2.63049,-0.73694 -3.96995,-0.53253 -1.5131,-0.18136 -2.68307,1.15287 -4.21181,0.76103 -1.26537,-0.32518 -1.17284,-2.01242 -1.3279,-3.05252 -0.0861,-0.85975 -0.43717,-1.81483 -1.27754,-2.09999 0.0294,-2.44324 -0.68724,-4.78847 -1.49002,-7.06024 0.0717,-0.75558 1.14203,-1.01107 1.39122,-1.73836 0.60014,-0.86243 1.69357,-1.41923 2.69127,-1.61934 1.16786,0.52843 2.36921,-0.22319 3.50723,-0.43068 0.52358,-0.68651 1.1082,-1.35713 1.88179,-1.82991 2.20928,-1.95951 5.82825,-1.35518 7.61755,-3.88603 0.5666,-0.75406 1.1959,-1.84787 2.3132,-1.47781 1.304,0.0436 1.6,-2.31406 0.087,-2.20375 -1.1279,-0.15738 -2.455,-0.66568 -3.4386,0.14648 -0.5711,0.0458 -0.6511,-0.8181 -1.0894,-1.08414 -0.1527,-0.56813 0.09,-1.37435 0.5249,-1.75399 0.815,-0.0573 2.4797,0.15616 1.9828,-1.15242 -1.0701,-1.68708 -2.95262,-3.23905 -2.547,-5.46379 -0.026,-2.02424 0.4217,-4.1144 0.081,-6.09208 -0.46151,-0.46483 -1.48102,-0.97348 -0.61603,-1.60217 0.78293,-0.74618 1.09743,-1.79144 1.19513,-2.79655 0.6257,-0.85589 -0.567,-1.54341 -1.32123,-1.18401 -1.37489,0.0515 -2.72568,0.52173 -3.60887,1.6227 -0.73317,0.68808 -2.17355,1.50468 -2.87106,0.33355 -1.25934,-1.20374 -2.11353,-2.88101 -3.61812,-3.79463 -1.49508,0.016 -2.44452,1.53188 -3.65266,2.24493 -1.08781,0.65672 -2.19164,1.74908 -3.51096,1.74753 -0.93522,-0.60309 -0.69971,-1.77329 -0.0565,-2.48947 0.55287,-1.33869 -1.22945,-1.79702 -2.1965,-1.96724 -1.16381,-0.0203 -2.0642,-1.35623 -3.23029,-0.8789 -1.05723,-0.1454 -1.96705,-0.8373 -2.81906,-1.44768 -1.1544,-1.40031 -2.39286,-2.88822 -4.00734,-3.72734 -0.74921,0.2704 -1.16863,1.25762 -2.10762,0.99983 -1.2426,-0.10758 -2.40221,0.31996 -3.53164,0.74082 -1.47718,-0.12051 -2.82025,-0.98098 -4.29014,-1.26423 -1.17748,-0.29774 -2.34863,-0.76066 -3.56432,-0.85369 z" style="fill:#ff9eb0;fill-opacity:1;stroke:#ffffff;stroke-width:1.5;stroke-linejoin:round;stroke-linecap:round;" />
  </g>
</svg>
